# xmcd
#
# Track frame offsets:
#	150
#	12285
#	29085
#	41462
#	53547
#	69222
#	83190
#	97975
#	115352
#	128920
#	139687
#	156790
#	171800
#	185437
#	199795
#
# Disc length: 2832 seconds
#
# Revision: 1
# Processed by: cddbd v1.5.1PL0 Copyright (c) Steve Scherf et al.
# Submitted via: audiograbber 1.83.01
#
DISCID=c20b0e0f
DTITLE=Various Artist - Totally (Beautiful) Country Girls
DYEAR=1997
DGENRE=Country
TTITLE0=Tammy Wynette - Stand By Your Man
TTITLE1=Gretchen Peters - Waiting For The Light To Turn Green
TTITLE2=Billie Joe Spears - What I've Got In My Mind
TTITLE3=Kitty Wells - Amigos Guitar
TTITLE4=Jo Dee Messina - Heads Carolina, Tails California
TTITLE5=Nancy Sinatra - So Long Babe
TTITLE6=Olivia Newton John - The Bank Of Ohio
TTITLE7=Wyonna - Tell Me Why
TTITLE8=Kimmie Rhodes - No Next Time
TTITLE9=Dolly Parton - It Wasn't God Who Made Honky Tonk Angels
TTITLE10=Cindy Church - My Baby
TTITLE11=Jennie C. Riley - Harper Valley PTA
TTITLE12=Loretta Lynn - Coal Miners Daughter
TTITLE13=Jann Browne - Louisville
TTITLE14=Christine Albert - The Souvenir
EXTD=
EXTT0=
EXTT1=
EXTT2=
EXTT3=
EXTT4=
EXTT5=
EXTT6=
EXTT7=
EXTT8=
EXTT9=
EXTT10=
EXTT11=
EXTT12=
EXTT13=
EXTT14=
PLAYORDER=
